<svg xmlns="http://www.w3.org/2000/svg" width="16" height="16" viewBox="-91 0 16 16" enable-background="new -91 0 16 16"><path fill="#C9CCCB" d="M-87.8 8c0 2.6 2.1 4.8 4.8 4.8 2.6 0 4.8-2.1 4.8-4.8v-1.2h1.2v6c0 .8-.4 1.2-1.2 1.2h-10c-.8 0-1.2-.4-1.2-1.2v-6h1.6v1.2zm-3.2-5.9v11.9c0 1.3.7 2.1 2.1 2.1h11.9c1.3 0 2.1-.7 2.1-2.1v-11.9c0-1.3-.7-2.1-2.1-2.1h-11.9c-1.4 0-2.1.7-2.1 2.1zm4.8 5.9c0-1.8 1.4-3.2 3.2-3.2 1.8 0 3.2 1.4 3.2 3.2 0 1.8-1.4 3.2-3.2 3.2s-3.2-1.4-3.2-3.2zm6.8-5.4c0-.3.3-.6.6-.6h1.2c.3 0 .6.3.6.6v1.2c0 .3-.3.6-.6.6h-1.2c-.3 0-.6-.3-.6-.6v-1.2z"/></svg>