<svg xmlns="http://www.w3.org/2000/svg" width="16" height="16" viewBox="-91 0 16 16" enable-background="new -91 0 16 16"><path fill="#C9CCCB" d="M-76.8.4c.6.2.9.9 1.2 1.4.4.7.6 1.4.6 2.1 0 1.1-.4 2-.8 3-.2.7-.6 1.4-.9 2-1.2 1.9-3.5 4.3-5.5 5.5-.6.4-1.3.7-2 .9-1 .4-1.9.8-3 .8-.8 0-1.4-.2-2.1-.6-.5-.3-1.1-.6-1.4-1.2-.2-.4-.4-1.2-.4-1.6v-.2c.1-.2.6-.5.9-.6l1.9-1.1c.3-.2.7-.5 1-.5.7 0 1.7 2.1 2.3 2.1.3 0 .7-.3 1-.4 2.1-1.1 3.5-2.6 4.6-4.6.2-.3.4-.7.4-1 0-.6-2.1-1.6-2.1-2.3 0-.4.3-.7.5-1l1.1-1.9c.1-.2.4-.8.6-.9h.2c.7-.3 1.5-.1 1.9.1z"/></svg>