<svg xmlns="http://www.w3.org/2000/svg" width="800" height="250" viewBox="600 -234 800 250" enable-background="new 600 -234 800 250"><path fill="#fff" d="M600-234h800v250h-800z"/><path opacity=".8" fill="#fff" enable-background="new" d="M600-234h800v250h-800v-250z"/><path fill="#F2F2F2" d="M1373-207h-74c-1.7 0-3 1.3-3 3v44c0 1.7 1.3 3 3 3h74c1.7 0 3-1.3 3-3v-44c0-1.7-1.3-3-3-3zM626-112h86c1.1 0 2-.9 2-2v-13c0-1.1-.9-2-2-2h-86c-1.1 0-2 .9-2 2v13c0 1.1.9 2 2 2zM796-112h54c1.1 0 2-.9 2-2v-13c0-1.1-.9-2-2-2h-54c-1.1 0-2 .9-2 2v13c0 1.1.9 2 2 2zM720-112h68c1.1 0 2-.9 2-2v-13c0-1.1-.9-2-2-2h-68c-1.1 0-2 .9-2 2v13c0 1.1.9 2 2 2z"/><path fill="#E5E5E5" d="M626-191h296c1.1 0 2-.9 2-2v-12c0-1.1-.9-2-2-2h-296c-1.1 0-2 .9-2 2v12c0 1.1.9 2 2 2z"/><path fill="#F2F2F2" d="M1244-179h-618c-1.1 0-2 .9-2 2v6c0 1.1.9 2 2 2h618"/><path fill="#F2F2F2" d="M1152-163h-526c-1.1 0-2 .9-2 2v6c0 1.1.9 2 2 2h526c1.1 0 2-.9 2-2v-6c0-1.1-.9-2-2-2z"/><circle fill="#E5E5E5" cx="1156.5" cy="-154.5" r="1.5"/><circle fill="#E5E5E5" cx="1160.5" cy="-154.5" r="1.5"/><circle fill="#E5E5E5" cx="1164.5" cy="-154.5" r="1.5"/></svg>