<svg xmlns="http://www.w3.org/2000/svg" width="16" height="13" viewBox="-84 0.7 16 13" enable-background="new -84 0.7 16 13"><path d="M-69.9 2.8c.7-.4 1.2-1 1.4-1.8-.7.4-1.4.6-2.1.8-.6-.7-1.4-1-2.4-1-.9 0-1.7.3-2.3 1-.6.6-1 1.4-1 2.3 0 .3 0 .5.1.7-2.7-.1-5-1.2-6.8-3.4-.3.5-.5 1.1-.5 1.6 0 1.2.5 2.1 1.5 2.7-.6 0-1-.2-1.5-.4 0 .8.2 1.5.7 2.1.5.6 1.1 1 1.9 1.1-.3.1-.6.1-.9.1-.3 0-.5 0-.6-.1.2.7.6 1.2 1.1 1.6.6.4 1.2.6 1.9.7-1.2.9-2.5 1.4-4.1 1.4h-.8c1.5 1 3.2 1.5 5 1.5 1.9 0 3.6-.5 5-1.4 1.5-1 2.5-2.1 3.2-3.5.7-1.4 1-2.8 1-4.3v-.6c.7-.5 1.2-1.1 1.6-1.7-.1.3-.7.5-1.4.6z"/></svg>