<svg xmlns="http://www.w3.org/2000/svg" width="200" height="120" viewBox="0 0 200 120"><g opacity=".5"><path fill="#808080" d="M0 0h40v40h-40z"/><path fill="#ccc" d="M40 0h40v40h-40z"/><path fill="#E6E6E6" d="M80 0h40v40h-40z"/><path fill="#B3B3B3" d="M120 0h40v40h-40z"/><path fill="#999" d="M160 0h40v40h-40z"/><path fill="#ccc" d="M0 40h40v40h-40z"/><path fill="#E6E6E6" d="M40 40h40v40h-40z"/><path fill="#B3B3B3" d="M80 40h40v40h-40z"/><path fill="#ccc" d="M120 40h40v40h-40z"/><path fill="#666" d="M160 40h40v40h-40z"/><path fill="#B3B3B3" d="M0 80h40v40h-40z"/><path fill="#808080" d="M40 80h40v40h-40z"/><path fill="#E6E6E6" d="M80 80h40v40h-40z"/><path fill="#808080" d="M120 80h40v40h-40z"/><path fill="#999" d="M160 80h40v40h-40z"/></g></svg>